<svg xmlns="http://www.w3.org/2000/svg" viewBox="0 0 40 40"><defs><style>.cls-1,.cls-3{fill:none;}.cls-1{stroke:#782c81;stroke-linecap:round;stroke-miterlimit:10;stroke-width:0.87px;}.cls-2{fill:#782c81;}</style></defs><title>ico-actividad</title><g id="Capa_2" data-name="Capa 2"><g id="Layer_1" data-name="Layer 1"><path class="cls-1" d="M31.73,25.89a1.54,1.54,0,0,0,1.54,1.54v4.18a.83.83,0,0,1-.83.82H7.56a.83.83,0,0,1-.83-.82v-4a1.54,1.54,0,1,0,0-3.07v-4a.83.83,0,0,1,.83-.82H32.44a.83.83,0,0,1,.83.82v3.81A1.53,1.53,0,0,0,31.73,25.89Z"/><rect class="cls-1" x="12.02" y="22.59" width="15.96" height="6.97" rx="0.47"/><rect class="cls-2" x="14.03" y="25.53" width="11.93" height="1.1" rx="0.55"/><path class="cls-1" d="M33,16.79l-2.94,2.94h-18L24,7.81a.83.83,0,0,1,1.17,0L27.9,10.5a1.53,1.53,0,1,0,2.17,2.17l3,3A.82.82,0,0,1,33,16.79Z"/><path class="cls-1" d="M27.51,18.25,26,19.73H16.18l6.4-6.41a.48.48,0,0,1,.67,0l4.26,4.27A.47.47,0,0,1,27.51,18.25Z"/><path class="cls-2" d="M24.12,17.27a.56.56,0,0,1-.17.39l-2.06,2.07H20.33l2.84-2.85a.56.56,0,0,1,.78,0A.56.56,0,0,1,24.12,17.27Z"/><rect class="cls-3" width="40" height="40"/></g></g></svg>