<svg xmlns="http://www.w3.org/2000/svg" viewBox="0 0 40 40"><defs><style>.cls-1,.cls-2{fill:none;}.cls-1{stroke:#782c81;stroke-linecap:round;stroke-miterlimit:10;stroke-width:0.81px;}</style></defs><title>ico-home</title><g id="Capa_2" data-name="Capa 2"><g id="Layer_1" data-name="Layer 1"><path class="cls-1" d="M14.52,11.36l2.83-2L20,7.41l2.65,1.91,2.47,1.79V8.05a.6.6,0,0,1,.61-.6H28a.6.6,0,0,1,.61.6v5.57l4.58,3.31a.6.6,0,0,1,.14.85l-1.1,1.52a.61.61,0,0,1-.85.14l-2.77-2-3.48-2.51L20,11.23,8.63,19.44a.61.61,0,0,1-.85-.14l-1.1-1.52a.6.6,0,0,1,.14-.85l3.72-2.69"/><path class="cls-1" d="M28.66,24.94v6.87a.78.78,0,0,1-.79.78H22.42V26.38h-4.8v6.21H12.16c-.43,0-.78-.35-.78-1.07V20L20,13.72,28.66,20"/><rect class="cls-2" width="40" height="40"/></g></g></svg>