<svg xmlns="http://www.w3.org/2000/svg" viewBox="0 0 40 40"><defs><style>.cls-1,.cls-3{fill:none;}.cls-1{stroke:#782c81;stroke-linecap:round;stroke-miterlimit:10;stroke-width:0.76px;}.cls-2{fill:#782c81;}</style></defs><title>ico-cal</title><g id="Capa_2" data-name="Capa 2"><g id="Layer_1" data-name="Layer 1"><path class="cls-1" d="M27.51,10.56h3a.54.54,0,0,1,.54.54V32.05a.54.54,0,0,1-.54.54h-21A.54.54,0,0,1,9,32.05V11.1a.54.54,0,0,1,.54-.54h3"/><line class="cls-1" x1="18.58" y1="10.56" x2="21.42" y2="10.56"/><rect class="cls-1" x="11.19" y="16.98" width="17.62" height="13.41" rx="0.52"/><rect class="cls-1" x="14.49" y="7.41" width="2.09" height="6.31" rx="1.04"/><rect class="cls-1" x="23.42" y="7.41" width="2.09" height="6.31" rx="1.04"/><path class="cls-2" d="M19.43,27.39V22.94H17.7V21.89a3.21,3.21,0,0,0,.7-.05,1.93,1.93,0,0,0,.61-.23,1.57,1.57,0,0,0,.46-.43,1.52,1.52,0,0,0,.24-.65h1.11v6.86Z"/><rect class="cls-3" width="40" height="40"/></g></g></svg>