<svg xmlns="http://www.w3.org/2000/svg" viewBox="0 0 186.38 66.81"><defs><style>.cls-1{fill:#fff;}.cls-2{fill:#dadada;}.cls-3{fill:#b2b2b2;}</style></defs><title>logo-bco</title><g id="Capa_2" data-name="Capa 2"><g id="Capa_1-2" data-name="Capa 1"><polygon class="cls-1" points="66.2 0 0 16.55 49.65 49.65 66.2 0"/><polygon class="cls-2" points="16.53 49.55 26.13 33.87 49.67 12.28 16.59 27.52 16.53 49.55"/><polygon class="cls-3" points="26.14 34.11 16.55 49.78 30.7 37.14 26.14 34.11"/><path class="cls-1" d="M73,38h6.94L87.8,59.78,95.67,38h6.93l-11,28.27H84Z"/><path class="cls-1" d="M104.83,38h6.07V66.3h-6.07Z"/><path class="cls-1" d="M134.31,61.43H121.56l-1.8,4.87h-6.67l11-28.27h7.61l11,28.27h-6.63Zm-11.13-5.21h9.46l-4.71-13Z"/><path class="cls-1" d="M145.9,59.44a6.5,6.5,0,0,0,4.54,2,4.21,4.21,0,0,0,4.45-4.53V38H161V57c0,6.7-4.19,9.79-10.05,9.79a10.62,10.62,0,0,1-7.66-2.75Z"/><path class="cls-1" d="M166.18,38h20.2V43.2H172.26v6.15h13.82v5.17H172.26v6.57h14.12V66.3h-20.2Z"/><path class="cls-1" d="M97.71,12.17l-8,20.35H87L79,12.17V32.52H72.89V4.24h8.52l6.93,17.64L95.27,4.24h8.56V32.52H97.71Z"/><path class="cls-1" d="M109.05,4.24h6.07V32.52h-6.07Z"/></g></g></svg>